# xmcd CD database file
#
# Track frame offsets:
#	150
#	21800
#	46030
#	66587
#	86375
#	103755
#	123097
#	142347
#	160552
#	180960
#	201395
#	220560
#
# Disc length: 3432 seconds
#
# Revision: 1
# Processed by: cddbd v1.5.2PL0 Copyright (c) Steve Scherf et al.
# Submitted via: CDex 1.51
#
DISCID=9e0d660c
DTITLE=Patti LaBelle - The Spirit's In It - I'm In Love Again - Patti [1998 Remaster] CD2
DYEAR=1998
DGENRE=Soul/R&B
TTITLE0=Body Language
TTITLE1=I'll Never, Never Give Up
TTITLE2=Love Bankrupt
TTITLE3=When Am I Gonna Find True Love
TTITLE4=Love Symphony
TTITLE5=Living Double
TTITLE6=Where I Wanna Be
TTITLE7=Shy
TTITLE8=Look To The Rainbow
TTITLE9=I Can't Forget You
TTITLE10=What Can I Do For You
TTITLE11=If You Don't Know Me By Now
EXTD=YEAR: 1998
EXTT0=
EXTT1=
EXTT2=
EXTT3=
EXTT4=
EXTT5=
EXTT6=
EXTT7=
EXTT8=
EXTT9=
EXTT10=
EXTT11=
PLAYORDER=
